<svg xmlns="http://www.w3.org/2000/svg" viewBox="0 0 24 24" fill="currentColor">
  <path d="M17.05 12.536c-.031-3.139 2.582-4.65 2.699-4.723-1.471-2.133-3.767-2.426-4.587-2.462-1.954-.197-3.813 1.135-4.804 1.135-.99 0-2.525-1.106-4.149-1.079-2.134.032-4.102 1.226-5.199 3.112-2.217 3.815-.567 9.47 1.593 12.566 1.056 1.517 2.315 3.223 3.968 3.163 1.592-.062 2.194-1.019 4.119-1.019 1.926 0 2.466 1.019 4.15 0.987 1.714-.031 2.798-1.542 3.845-3.064 1.213-1.757 1.71-3.46 1.739-3.548-.038-.017-3.333-1.267-3.374-5.024v-.044zM14.2 3.765c.877-1.054 1.468-2.514 1.307-3.968-1.263.051-2.791.836-3.697 1.89-.813.934-1.524 2.425-1.332 3.858 1.41.108 2.847-.706 3.722-1.78z"/>
</svg> 